<svg xmlns="http://www.w3.org/2000/svg" width="980" height="560" viewBox="0 0 980 560">
<rect width="100%" height="100%" fill="#f7f4ee"/>
<text x="120" y="42" font-size="24" font-family="Arial, sans-serif" fill="#1c1c1c">Average signature size (bytes)</text>
<text x="120" y="66" font-size="12" font-family="Arial, sans-serif" fill="#555">Generated from benchmark_results.csv</text>
<line x1="120" y1="450" x2="940" y2="450" stroke="#222" stroke-width="1.5"/>
<line x1="120" y1="80" x2="120" y2="450" stroke="#222" stroke-width="1.5"/>
<line x1="114" y1="450.00" x2="940" y2="450.00" stroke="#d8d1c4" stroke-width="1"/>
<text x="108" y="454.00" text-anchor="end" font-size="11" font-family="Arial, sans-serif" fill="#444">0</text>
<line x1="114" y1="376.00" x2="940" y2="376.00" stroke="#d8d1c4" stroke-width="1"/>
<text x="108" y="380.00" text-anchor="end" font-size="11" font-family="Arial, sans-serif" fill="#444">5005</text>
<line x1="114" y1="302.00" x2="940" y2="302.00" stroke="#d8d1c4" stroke-width="1"/>
<text x="108" y="306.00" text-anchor="end" font-size="11" font-family="Arial, sans-serif" fill="#444">10010</text>
<line x1="114" y1="228.00" x2="940" y2="228.00" stroke="#d8d1c4" stroke-width="1"/>
<text x="108" y="232.00" text-anchor="end" font-size="11" font-family="Arial, sans-serif" fill="#444">15014</text>
<line x1="114" y1="154.00" x2="940" y2="154.00" stroke="#d8d1c4" stroke-width="1"/>
<text x="108" y="158.00" text-anchor="end" font-size="11" font-family="Arial, sans-serif" fill="#444">20019</text>
<line x1="114" y1="80.00" x2="940" y2="80.00" stroke="#d8d1c4" stroke-width="1"/>
<text x="108" y="84.00" text-anchor="end" font-size="11" font-family="Arial, sans-serif" fill="#444">25024</text>
<rect x="145.97" y="80.00" width="84.73" height="370.00" rx="6" fill="#1f4e79"/>
<text x="188.33" y="72.00" text-anchor="middle" font-size="11" font-family="Arial, sans-serif" fill="#222">25024</text>
<text x="188.33" y="472.00" text-anchor="end" transform="rotate(-28 188.33 472.00)" font-size="12" font-family="Arial, sans-serif" fill="#222">Ext4 hierarchical</text>
<rect x="282.63" y="80.19" width="84.73" height="369.81" rx="6" fill="#2e8b57"/>
<text x="325.00" y="72.19" text-anchor="middle" font-size="11" font-family="Arial, sans-serif" fill="#222">25011</text>
<text x="325.00" y="472.00" text-anchor="end" transform="rotate(-28 325.00 472.00)" font-size="12" font-family="Arial, sans-serif" fill="#222">Ext3 batched</text>
<rect x="419.30" y="84.35" width="84.73" height="365.65" rx="6" fill="#c26d00"/>
<text x="461.67" y="76.35" text-anchor="middle" font-size="11" font-family="Arial, sans-serif" fill="#222">24730</text>
<text x="461.67" y="472.00" text-anchor="end" transform="rotate(-28 461.67 472.00)" font-size="12" font-family="Arial, sans-serif" fill="#222">Ext1 k-of-n</text>
<rect x="555.97" y="84.35" width="84.73" height="365.65" rx="6" fill="#8b3a3a"/>
<text x="598.33" y="76.35" text-anchor="middle" font-size="11" font-family="Arial, sans-serif" fill="#222">24730</text>
<text x="598.33" y="472.00" text-anchor="end" transform="rotate(-28 598.33 472.00)" font-size="12" font-family="Arial, sans-serif" fill="#222">Ext2 distributed</text>
<rect x="692.63" y="85.02" width="84.73" height="364.98" rx="6" fill="#5b4b8a"/>
<text x="735.00" y="77.02" text-anchor="middle" font-size="11" font-family="Arial, sans-serif" fill="#222">24685</text>
<text x="735.00" y="472.00" text-anchor="end" transform="rotate(-28 735.00 472.00)" font-size="12" font-family="Arial, sans-serif" fill="#222">Minimal</text>
<rect x="829.30" y="405.43" width="84.73" height="44.57" rx="6" fill="#4a6a6d"/>
<text x="871.67" y="397.43" text-anchor="middle" font-size="11" font-family="Arial, sans-serif" fill="#222">3014</text>
<text x="871.67" y="472.00" text-anchor="end" transform="rotate(-28 871.67 472.00)" font-size="12" font-family="Arial, sans-serif" fill="#222">Ext5 Winternitz</text>
</svg>